<svg width="14" height="19" viewBox="0 0 14 19" fill="none" xmlns="http://www.w3.org/2000/svg">
<path d="M6.64232 0.574219C2.98861 0.574219 0.0157471 3.54708 0.0157471 7.20116C0.0157471 8.15429 0.21083 9.06431 0.595287 9.90617C2.25212 13.5317 5.42872 17.3595 6.36305 18.4462C6.43306 18.5274 6.53511 18.5742 6.64251 18.5742C6.7499 18.5742 6.85196 18.5274 6.92196 18.4462C7.85593 17.3597 11.0325 13.5321 12.6899 9.90617C13.0746 9.06431 13.2695 8.15429 13.2695 7.20116C13.2691 3.54708 10.2962 0.574219 6.64232 0.574219ZM6.64232 10.6432C4.74436 10.6432 3.20008 9.09894 3.20008 7.20098C3.20008 5.30283 4.74436 3.75856 6.64232 3.75856C8.54029 3.75856 10.0846 5.30283 10.0846 7.20098C10.0847 9.09894 8.54047 10.6432 6.64232 10.6432Z" fill="white"/>
</svg>
