<svg width="15" height="12" viewBox="0 0 15 12" fill="none" xmlns="http://www.w3.org/2000/svg">
<path d="M14.8679 1.4804L10.3187 6.00029L14.8679 10.5202C14.9501 10.3483 15 10.1583 15 9.95537V2.04521C15 1.84227 14.9501 1.65228 14.8679 1.4804Z" fill="white"/>
<path d="M13.6816 0.726562H1.31835C1.11541 0.726562 0.925422 0.776455 0.753538 0.858692L6.56788 6.64375C7.08199 7.15786 7.918 7.15786 8.4321 6.64375L14.2464 0.858692C14.0746 0.776455 13.8846 0.726562 13.6816 0.726562Z" fill="white"/>
<path d="M0.132129 1.4804C0.0498926 1.65228 0 1.84227 0 2.04521V9.95537C0 10.1583 0.0498926 10.3483 0.132129 10.5202L4.68132 6.00029L0.132129 1.4804Z" fill="white"/>
<path d="M9.69726 6.62148L9.05352 7.26522C8.19691 8.12183 6.80305 8.12183 5.94644 7.26522L5.30273 6.62148L0.753538 11.1414C0.925422 11.2236 1.11541 11.2735 1.31835 11.2735H13.6816C13.8846 11.2735 14.0746 11.2236 14.2464 11.1414L9.69726 6.62148Z" fill="white"/>
</svg>
