<svg width="18" height="18" viewBox="0 0 18 18" fill="none" xmlns="http://www.w3.org/2000/svg">
<path d="M9 0C7.21997 0 5.47991 0.52784 3.99987 1.51677C2.51983 2.50571 1.36628 3.91131 0.685088 5.55585C0.00389961 7.20038 -0.17433 9.00998 0.172936 10.7558C0.520203 12.5016 1.37737 14.1053 2.63604 15.364C3.89472 16.6226 5.49836 17.4798 7.24419 17.8271C8.99002 18.1743 10.7996 17.9961 12.4442 17.3149C14.0887 16.6337 15.4943 15.4802 16.4832 14.0001C17.4722 12.5201 18 10.78 18 9C17.9972 6.61391 17.0481 4.32636 15.3609 2.63915C13.6736 0.95193 11.3861 0.00281493 9 0ZM12.8512 7.533L8.76027 11.6239C8.60684 11.7773 8.39877 11.8635 8.18182 11.8635C7.96487 11.8635 7.7568 11.7773 7.60337 11.6239L5.14882 9.16936C5.07068 9.09389 5.00835 9.0036 4.96547 8.90378C4.92259 8.80396 4.90001 8.6966 4.89907 8.58796C4.89813 8.47932 4.91883 8.37159 4.95997 8.27104C5.00111 8.17048 5.06186 8.07913 5.13868 8.00231C5.2155 7.92549 5.30685 7.86474 5.4074 7.8236C5.50796 7.78246 5.61569 7.76176 5.72433 7.7627C5.83297 7.76365 5.94033 7.78622 6.04015 7.8291C6.13997 7.87198 6.23026 7.93431 6.30573 8.01245L8.18182 9.88854L11.6943 6.37609C11.8486 6.22705 12.0553 6.14458 12.2698 6.14645C12.4843 6.14831 12.6895 6.23436 12.8412 6.38606C12.9929 6.53775 13.079 6.74296 13.0808 6.95749C13.0827 7.17201 13.0002 7.37869 12.8512 7.533Z" fill="#F0940A"/>
</svg>
